<svg xmlns="http://www.w3.org/2000/svg" xmlns:xlink="http://www.w3.org/1999/xlink" width="500" zoomAndPan="magnify" viewBox="0 0 375 374.999991" height="500" preserveAspectRatio="xMidYMid meet" version="1.0"><defs><g/></defs><g fill="#000000" fill-opacity="0.4"><g transform="translate(138.471303, 200.234284)"><g><path d="M 5.09375 -8.703125 C 5.09375 -10.578125 5.476562 -12.394531 6.25 -14.15625 C 7.03125 -15.925781 8.050781 -17.492188 9.3125 -18.859375 C 10.582031 -20.234375 12.035156 -21.335938 13.671875 -22.171875 C 15.304688 -23.015625 17 -23.4375 18.75 -23.4375 C 20.457031 -23.4375 21.769531 -23.007812 22.6875 -22.15625 C 23.613281 -21.300781 24.078125 -20.082031 24.078125 -18.5 C 24.078125 -17.738281 23.96875 -17.003906 23.75 -16.296875 C 23.539062 -15.585938 23.265625 -14.953125 22.921875 -14.390625 C 22.578125 -13.828125 22.171875 -13.375 21.703125 -13.03125 C 21.242188 -12.6875 20.785156 -12.515625 20.328125 -12.515625 C 19.929688 -12.515625 19.523438 -12.632812 19.109375 -12.875 C 18.703125 -13.125 18.363281 -13.445312 18.09375 -13.84375 C 20.300781 -15.851562 21.40625 -17.6875 21.40625 -19.34375 C 21.40625 -20.289062 21.03125 -20.765625 20.28125 -20.765625 C 19.613281 -20.765625 18.785156 -20.453125 17.796875 -19.828125 C 16.804688 -19.203125 15.851562 -18.378906 14.9375 -17.359375 C 13.519531 -15.773438 12.4375 -14.019531 11.6875 -12.09375 C 10.945312 -10.164062 10.578125 -8.144531 10.578125 -6.03125 C 10.578125 -3.363281 11.171875 -1.765625 12.359375 -1.234375 C 12.859375 -1.296875 13.4375 -1.441406 14.09375 -1.671875 C 14.75 -1.910156 15.457031 -2.21875 16.21875 -2.59375 C 16.976562 -2.976562 17.757812 -3.414062 18.5625 -3.90625 C 19.375 -4.40625 20.160156 -4.929688 20.921875 -5.484375 C 21.046875 -5.390625 21.15625 -5.242188 21.25 -5.046875 C 21.351562 -4.847656 21.40625 -4.664062 21.40625 -4.5 C 20.851562 -3.8125 20.210938 -3.132812 19.484375 -2.46875 C 18.753906 -1.8125 17.992188 -1.210938 17.203125 -0.671875 C 16.410156 -0.128906 15.644531 0.328125 14.90625 0.703125 C 14.164062 1.085938 13.515625 1.332031 12.953125 1.4375 C 11.867188 1.332031 10.847656 0.992188 9.890625 0.421875 C 8.929688 -0.148438 8.097656 -0.898438 7.390625 -1.828125 C 6.679688 -2.753906 6.117188 -3.8125 5.703125 -5 C 5.296875 -6.1875 5.09375 -7.421875 5.09375 -8.703125 Z M 5.09375 -8.703125 "/></g></g></g><g fill="#000000" fill-opacity="0.4"><g transform="translate(159.241619, 200.234284)"><g><path d="M 10.625 1.734375 C 8.75 1.535156 7.25 0.710938 6.125 -0.734375 C 5.007812 -2.191406 4.453125 -4.039062 4.453125 -6.28125 C 4.453125 -7.601562 4.648438 -8.972656 5.046875 -10.390625 C 5.441406 -11.804688 6 -13.179688 6.71875 -14.515625 C 7.445312 -15.847656 8.304688 -17.109375 9.296875 -18.296875 C 10.285156 -19.484375 11.359375 -20.503906 12.515625 -21.359375 C 14.328125 -22.710938 16.023438 -23.390625 17.609375 -23.390625 C 18.660156 -22.828125 19.695312 -21.65625 20.71875 -19.875 C 20.882812 -19.875 21.03125 -19.878906 21.15625 -19.890625 C 21.289062 -19.910156 21.441406 -19.921875 21.609375 -19.921875 C 23.359375 -19.921875 24.234375 -18.375 24.234375 -15.28125 C 24.234375 -13.207031 23.894531 -11.238281 23.21875 -9.375 C 22.539062 -7.507812 21.597656 -5.816406 20.390625 -4.296875 C 19.191406 -2.785156 17.757812 -1.507812 16.09375 -0.46875 C 14.425781 0.570312 12.601562 1.304688 10.625 1.734375 Z M 13.15625 -13.84375 C 12.59375 -13.082031 12.0625 -12.253906 11.5625 -11.359375 C 11.070312 -10.472656 10.644531 -9.578125 10.28125 -8.671875 C 9.925781 -7.765625 9.648438 -6.890625 9.453125 -6.046875 C 9.253906 -5.210938 9.15625 -4.46875 9.15625 -3.8125 C 9.15625 -3.019531 9.285156 -2.257812 9.546875 -1.53125 C 9.804688 -0.800781 10.101562 -0.390625 10.4375 -0.296875 C 11.914062 -0.628906 13.273438 -1.25 14.515625 -2.15625 C 15.753906 -3.0625 16.828125 -4.1875 17.734375 -5.53125 C 18.640625 -6.882812 19.347656 -8.414062 19.859375 -10.125 C 20.367188 -11.84375 20.625 -13.675781 20.625 -15.625 C 20.625 -16.476562 20.570312 -17.148438 20.46875 -17.640625 C 20.375 -18.140625 20.210938 -18.570312 19.984375 -18.9375 C 18.523438 -18.507812 17.226562 -17.816406 16.09375 -16.859375 C 14.957031 -15.898438 13.976562 -14.894531 13.15625 -13.84375 Z M 13.15625 -13.84375 "/></g></g></g><g fill="#000000" fill-opacity="0.4"><g transform="translate(181.050451, 200.234284)"><g><path d="M 3.015625 -0.6875 C 3.015625 -1.21875 3.472656 -2.066406 4.390625 -3.234375 C 5.316406 -4.410156 6.546875 -5.75 8.078125 -7.25 C 9.617188 -8.75 11.382812 -10.328125 13.375 -11.984375 C 15.375 -13.648438 17.441406 -15.257812 19.578125 -16.8125 C 18.191406 -17.113281 17.09375 -17.328125 16.28125 -17.453125 C 15.476562 -17.585938 14.832031 -17.65625 14.34375 -17.65625 C 13.382812 -17.65625 12.523438 -17.519531 11.765625 -17.25 C 11.003906 -16.988281 10.265625 -16.5625 9.546875 -15.96875 C 8.023438 -17.289062 7.265625 -18.804688 7.265625 -20.515625 C 7.265625 -21.046875 7.28125 -21.363281 7.3125 -21.46875 C 7.875 -22.019531 8.539062 -22.441406 9.3125 -22.734375 C 10.09375 -23.035156 10.910156 -23.1875 11.765625 -23.1875 C 12.691406 -23.1875 13.628906 -23.035156 14.578125 -22.734375 C 15.535156 -22.441406 16.476562 -22.125 17.40625 -21.78125 C 18.332031 -21.4375 19.195312 -21.113281 20 -20.8125 C 20.8125 -20.519531 21.53125 -20.375 22.15625 -20.375 C 22.519531 -20.375 22.921875 -20.421875 23.359375 -20.515625 C 23.804688 -20.617188 24.179688 -20.753906 24.484375 -20.921875 C 24.773438 -20.691406 25.046875 -20.226562 25.296875 -19.53125 C 25.546875 -18.84375 25.671875 -18.164062 25.671875 -17.5 C 24.648438 -17.101562 23.421875 -16.410156 21.984375 -15.421875 C 20.546875 -14.441406 19.082031 -13.304688 17.59375 -12.015625 C 16.113281 -10.734375 14.671875 -9.363281 13.265625 -7.90625 C 11.867188 -6.457031 10.710938 -5.09375 9.796875 -3.8125 C 10.484375 -3.507812 11.421875 -3.359375 12.609375 -3.359375 C 13.367188 -3.359375 14.144531 -3.425781 14.9375 -3.5625 C 15.726562 -3.695312 16.492188 -3.878906 17.234375 -4.109375 C 17.972656 -4.335938 18.65625 -4.609375 19.28125 -4.921875 C 19.90625 -5.234375 20.4375 -5.570312 20.875 -5.9375 C 22.414062 -4.945312 23.1875 -3.492188 23.1875 -1.578125 C 23.1875 -1.316406 23.175781 -1.101562 23.15625 -0.9375 C 23.144531 -0.769531 23.125 -0.570312 23.09375 -0.34375 C 21.570312 0.613281 19.925781 1.09375 18.15625 1.09375 C 17.257812 1.09375 16.363281 1 15.46875 0.8125 C 14.582031 0.632812 13.71875 0.445312 12.875 0.25 C 12.039062 0.0507812 11.25 -0.132812 10.5 -0.3125 C 9.757812 -0.5 9.078125 -0.59375 8.453125 -0.59375 C 6.867188 -0.59375 5.582031 0.144531 4.59375 1.625 C 4.164062 1.46875 3.8125 1.171875 3.53125 0.734375 C 3.25 0.304688 3.078125 -0.164062 3.015625 -0.6875 Z M 3.015625 -0.6875 "/></g></g></g><g fill="#000000" fill-opacity="0.4"><g transform="translate(204.392334, 200.234284)"><g><path d="M 23.390625 -7.671875 C 22.628906 -5.265625 21.867188 -3.070312 21.109375 -1.09375 C 20.359375 0.882812 19.550781 2.707031 18.6875 4.375 C 17.832031 6.039062 16.910156 7.570312 15.921875 8.96875 C 14.929688 10.375 13.84375 11.703125 12.65625 12.953125 C 11.144531 14.535156 9.578125 15.75 7.953125 16.59375 C 6.335938 17.4375 4.722656 17.859375 3.109375 17.859375 C 2.285156 17.859375 1.46875 17.765625 0.65625 17.578125 C -0.144531 17.398438 -0.898438 17.15625 -1.609375 16.84375 C -2.316406 16.53125 -2.941406 16.164062 -3.484375 15.75 C -4.023438 15.332031 -4.414062 14.894531 -4.65625 14.4375 C -4.65625 14.039062 -4.421875 13.695312 -3.953125 13.40625 C -3.554688 13.769531 -3.226562 14.050781 -2.96875 14.25 C -2.707031 14.445312 -2.453125 14.609375 -2.203125 14.734375 C -1.953125 14.867188 -1.6875 14.953125 -1.40625 14.984375 C -1.125 15.015625 -0.800781 15.03125 -0.4375 15.03125 C 1.4375 15.03125 3.269531 14.476562 5.0625 13.375 C 6.863281 12.269531 8.5625 10.703125 10.15625 8.671875 C 11.757812 6.648438 13.21875 4.195312 14.53125 1.3125 C 15.851562 -1.570312 16.976562 -4.796875 17.90625 -8.359375 C 17.476562 -7.703125 16.945312 -6.894531 16.3125 -5.9375 C 15.6875 -4.976562 14.992188 -4.03125 14.234375 -3.09375 C 13.484375 -2.15625 12.703125 -1.304688 11.890625 -0.546875 C 11.085938 0.210938 10.304688 0.722656 9.546875 0.984375 C 9.015625 0.953125 8.457031 0.84375 7.875 0.65625 C 7.300781 0.476562 6.757812 0.226562 6.25 -0.09375 C 5.738281 -0.425781 5.285156 -0.820312 4.890625 -1.28125 C 4.492188 -1.75 4.234375 -2.28125 4.109375 -2.875 C 4.109375 -3.820312 4.140625 -4.582031 4.203125 -5.15625 C 4.265625 -5.738281 4.378906 -6.378906 4.546875 -7.078125 C 4.847656 -8.328125 5.285156 -9.742188 5.859375 -11.328125 C 6.429688 -12.910156 7.101562 -14.46875 7.875 -16 C 8.65625 -17.53125 9.515625 -18.960938 10.453125 -20.296875 C 11.398438 -21.628906 12.382812 -22.675781 13.40625 -23.4375 C 13.664062 -23.4375 13.992188 -23.410156 14.390625 -23.359375 C 14.785156 -23.316406 15.195312 -23.226562 15.625 -23.09375 C 16.050781 -22.957031 16.460938 -22.800781 16.859375 -22.625 C 17.253906 -22.445312 17.601562 -22.207031 17.90625 -21.90625 C 17.539062 -21.570312 16.75 -20.46875 15.53125 -18.59375 C 14.3125 -16.71875 12.957031 -14.015625 11.46875 -10.484375 C 11.300781 -10.117188 11.101562 -9.585938 10.875 -8.890625 C 10.644531 -8.203125 10.421875 -7.476562 10.203125 -6.71875 C 9.992188 -5.96875 9.804688 -5.226562 9.640625 -4.5 C 9.472656 -3.769531 9.390625 -3.191406 9.390625 -2.765625 C 9.390625 -2.503906 9.429688 -2.304688 9.515625 -2.171875 C 9.597656 -2.046875 9.675781 -1.945312 9.75 -1.875 C 10.332031 -1.976562 11.117188 -2.46875 12.109375 -3.34375 C 13.097656 -4.21875 14.222656 -5.578125 15.484375 -7.421875 C 16.273438 -8.609375 17 -9.785156 17.65625 -10.953125 C 18.3125 -12.117188 18.960938 -13.296875 19.609375 -14.484375 C 20.253906 -15.671875 20.921875 -16.890625 21.609375 -18.140625 C 22.304688 -19.398438 23.050781 -20.6875 23.84375 -22 C 24.269531 -22 24.726562 -21.945312 25.21875 -21.84375 C 25.71875 -21.75 26.195312 -21.628906 26.65625 -21.484375 C 27.113281 -21.335938 27.515625 -21.171875 27.859375 -20.984375 C 28.210938 -20.804688 28.472656 -20.617188 28.640625 -20.421875 C 27.609375 -18.242188 26.648438 -16.113281 25.765625 -14.03125 C 24.878906 -11.957031 24.085938 -9.835938 23.390625 -7.671875 Z M 23.390625 -7.671875 "/></g></g></g><g fill="#ffffff" fill-opacity="1"><g transform="translate(136.285488, 198.048474)"><g><path d="M 5.09375 -8.703125 C 5.09375 -10.578125 5.476562 -12.394531 6.25 -14.15625 C 7.03125 -15.925781 8.050781 -17.492188 9.3125 -18.859375 C 10.582031 -20.234375 12.035156 -21.335938 13.671875 -22.171875 C 15.304688 -23.015625 17 -23.4375 18.75 -23.4375 C 20.457031 -23.4375 21.769531 -23.007812 22.6875 -22.15625 C 23.613281 -21.300781 24.078125 -20.082031 24.078125 -18.5 C 24.078125 -17.738281 23.96875 -17.003906 23.75 -16.296875 C 23.539062 -15.585938 23.265625 -14.953125 22.921875 -14.390625 C 22.578125 -13.828125 22.171875 -13.375 21.703125 -13.03125 C 21.242188 -12.6875 20.785156 -12.515625 20.328125 -12.515625 C 19.929688 -12.515625 19.523438 -12.632812 19.109375 -12.875 C 18.703125 -13.125 18.363281 -13.445312 18.09375 -13.84375 C 20.300781 -15.851562 21.40625 -17.6875 21.40625 -19.34375 C 21.40625 -20.289062 21.03125 -20.765625 20.28125 -20.765625 C 19.613281 -20.765625 18.785156 -20.453125 17.796875 -19.828125 C 16.804688 -19.203125 15.851562 -18.378906 14.9375 -17.359375 C 13.519531 -15.773438 12.4375 -14.019531 11.6875 -12.09375 C 10.945312 -10.164062 10.578125 -8.144531 10.578125 -6.03125 C 10.578125 -3.363281 11.171875 -1.765625 12.359375 -1.234375 C 12.859375 -1.296875 13.4375 -1.441406 14.09375 -1.671875 C 14.75 -1.910156 15.457031 -2.21875 16.21875 -2.59375 C 16.976562 -2.976562 17.757812 -3.414062 18.5625 -3.90625 C 19.375 -4.40625 20.160156 -4.929688 20.921875 -5.484375 C 21.046875 -5.390625 21.15625 -5.242188 21.25 -5.046875 C 21.351562 -4.847656 21.40625 -4.664062 21.40625 -4.5 C 20.851562 -3.8125 20.210938 -3.132812 19.484375 -2.46875 C 18.753906 -1.8125 17.992188 -1.210938 17.203125 -0.671875 C 16.410156 -0.128906 15.644531 0.328125 14.90625 0.703125 C 14.164062 1.085938 13.515625 1.332031 12.953125 1.4375 C 11.867188 1.332031 10.847656 0.992188 9.890625 0.421875 C 8.929688 -0.148438 8.097656 -0.898438 7.390625 -1.828125 C 6.679688 -2.753906 6.117188 -3.8125 5.703125 -5 C 5.296875 -6.1875 5.09375 -7.421875 5.09375 -8.703125 Z M 5.09375 -8.703125 "/></g></g></g><g fill="#ffffff" fill-opacity="1"><g transform="translate(157.055804, 198.048474)"><g><path d="M 10.625 1.734375 C 8.75 1.535156 7.25 0.710938 6.125 -0.734375 C 5.007812 -2.191406 4.453125 -4.039062 4.453125 -6.28125 C 4.453125 -7.601562 4.648438 -8.972656 5.046875 -10.390625 C 5.441406 -11.804688 6 -13.179688 6.71875 -14.515625 C 7.445312 -15.847656 8.304688 -17.109375 9.296875 -18.296875 C 10.285156 -19.484375 11.359375 -20.503906 12.515625 -21.359375 C 14.328125 -22.710938 16.023438 -23.390625 17.609375 -23.390625 C 18.660156 -22.828125 19.695312 -21.65625 20.71875 -19.875 C 20.882812 -19.875 21.03125 -19.878906 21.15625 -19.890625 C 21.289062 -19.910156 21.441406 -19.921875 21.609375 -19.921875 C 23.359375 -19.921875 24.234375 -18.375 24.234375 -15.28125 C 24.234375 -13.207031 23.894531 -11.238281 23.21875 -9.375 C 22.539062 -7.507812 21.597656 -5.816406 20.390625 -4.296875 C 19.191406 -2.785156 17.757812 -1.507812 16.09375 -0.46875 C 14.425781 0.570312 12.601562 1.304688 10.625 1.734375 Z M 13.15625 -13.84375 C 12.59375 -13.082031 12.0625 -12.253906 11.5625 -11.359375 C 11.070312 -10.472656 10.644531 -9.578125 10.28125 -8.671875 C 9.925781 -7.765625 9.648438 -6.890625 9.453125 -6.046875 C 9.253906 -5.210938 9.15625 -4.46875 9.15625 -3.8125 C 9.15625 -3.019531 9.285156 -2.257812 9.546875 -1.53125 C 9.804688 -0.800781 10.101562 -0.390625 10.4375 -0.296875 C 11.914062 -0.628906 13.273438 -1.25 14.515625 -2.15625 C 15.753906 -3.0625 16.828125 -4.1875 17.734375 -5.53125 C 18.640625 -6.882812 19.347656 -8.414062 19.859375 -10.125 C 20.367188 -11.84375 20.625 -13.675781 20.625 -15.625 C 20.625 -16.476562 20.570312 -17.148438 20.46875 -17.640625 C 20.375 -18.140625 20.210938 -18.570312 19.984375 -18.9375 C 18.523438 -18.507812 17.226562 -17.816406 16.09375 -16.859375 C 14.957031 -15.898438 13.976562 -14.894531 13.15625 -13.84375 Z M 13.15625 -13.84375 "/></g></g></g><g fill="#ffffff" fill-opacity="1"><g transform="translate(178.864636, 198.048474)"><g><path d="M 3.015625 -0.6875 C 3.015625 -1.21875 3.472656 -2.066406 4.390625 -3.234375 C 5.316406 -4.410156 6.546875 -5.75 8.078125 -7.25 C 9.617188 -8.75 11.382812 -10.328125 13.375 -11.984375 C 15.375 -13.648438 17.441406 -15.257812 19.578125 -16.8125 C 18.191406 -17.113281 17.09375 -17.328125 16.28125 -17.453125 C 15.476562 -17.585938 14.832031 -17.65625 14.34375 -17.65625 C 13.382812 -17.65625 12.523438 -17.519531 11.765625 -17.25 C 11.003906 -16.988281 10.265625 -16.5625 9.546875 -15.96875 C 8.023438 -17.289062 7.265625 -18.804688 7.265625 -20.515625 C 7.265625 -21.046875 7.28125 -21.363281 7.3125 -21.46875 C 7.875 -22.019531 8.539062 -22.441406 9.3125 -22.734375 C 10.09375 -23.035156 10.910156 -23.1875 11.765625 -23.1875 C 12.691406 -23.1875 13.628906 -23.035156 14.578125 -22.734375 C 15.535156 -22.441406 16.476562 -22.125 17.40625 -21.78125 C 18.332031 -21.4375 19.195312 -21.113281 20 -20.8125 C 20.8125 -20.519531 21.53125 -20.375 22.15625 -20.375 C 22.519531 -20.375 22.921875 -20.421875 23.359375 -20.515625 C 23.804688 -20.617188 24.179688 -20.753906 24.484375 -20.921875 C 24.773438 -20.691406 25.046875 -20.226562 25.296875 -19.53125 C 25.546875 -18.84375 25.671875 -18.164062 25.671875 -17.5 C 24.648438 -17.101562 23.421875 -16.410156 21.984375 -15.421875 C 20.546875 -14.441406 19.082031 -13.304688 17.59375 -12.015625 C 16.113281 -10.734375 14.671875 -9.363281 13.265625 -7.90625 C 11.867188 -6.457031 10.710938 -5.09375 9.796875 -3.8125 C 10.484375 -3.507812 11.421875 -3.359375 12.609375 -3.359375 C 13.367188 -3.359375 14.144531 -3.425781 14.9375 -3.5625 C 15.726562 -3.695312 16.492188 -3.878906 17.234375 -4.109375 C 17.972656 -4.335938 18.65625 -4.609375 19.28125 -4.921875 C 19.90625 -5.234375 20.4375 -5.570312 20.875 -5.9375 C 22.414062 -4.945312 23.1875 -3.492188 23.1875 -1.578125 C 23.1875 -1.316406 23.175781 -1.101562 23.15625 -0.9375 C 23.144531 -0.769531 23.125 -0.570312 23.09375 -0.34375 C 21.570312 0.613281 19.925781 1.09375 18.15625 1.09375 C 17.257812 1.09375 16.363281 1 15.46875 0.8125 C 14.582031 0.632812 13.71875 0.445312 12.875 0.25 C 12.039062 0.0507812 11.25 -0.132812 10.5 -0.3125 C 9.757812 -0.5 9.078125 -0.59375 8.453125 -0.59375 C 6.867188 -0.59375 5.582031 0.144531 4.59375 1.625 C 4.164062 1.46875 3.8125 1.171875 3.53125 0.734375 C 3.25 0.304688 3.078125 -0.164062 3.015625 -0.6875 Z M 3.015625 -0.6875 "/></g></g></g><g fill="#ffffff" fill-opacity="1"><g transform="translate(202.20652, 198.048474)"><g><path d="M 23.390625 -7.671875 C 22.628906 -5.265625 21.867188 -3.070312 21.109375 -1.09375 C 20.359375 0.882812 19.550781 2.707031 18.6875 4.375 C 17.832031 6.039062 16.910156 7.570312 15.921875 8.96875 C 14.929688 10.375 13.84375 11.703125 12.65625 12.953125 C 11.144531 14.535156 9.578125 15.75 7.953125 16.59375 C 6.335938 17.4375 4.722656 17.859375 3.109375 17.859375 C 2.285156 17.859375 1.46875 17.765625 0.65625 17.578125 C -0.144531 17.398438 -0.898438 17.15625 -1.609375 16.84375 C -2.316406 16.53125 -2.941406 16.164062 -3.484375 15.75 C -4.023438 15.332031 -4.414062 14.894531 -4.65625 14.4375 C -4.65625 14.039062 -4.421875 13.695312 -3.953125 13.40625 C -3.554688 13.769531 -3.226562 14.050781 -2.96875 14.25 C -2.707031 14.445312 -2.453125 14.609375 -2.203125 14.734375 C -1.953125 14.867188 -1.6875 14.953125 -1.40625 14.984375 C -1.125 15.015625 -0.800781 15.03125 -0.4375 15.03125 C 1.4375 15.03125 3.269531 14.476562 5.0625 13.375 C 6.863281 12.269531 8.5625 10.703125 10.15625 8.671875 C 11.757812 6.648438 13.21875 4.195312 14.53125 1.3125 C 15.851562 -1.570312 16.976562 -4.796875 17.90625 -8.359375 C 17.476562 -7.703125 16.945312 -6.894531 16.3125 -5.9375 C 15.6875 -4.976562 14.992188 -4.03125 14.234375 -3.09375 C 13.484375 -2.15625 12.703125 -1.304688 11.890625 -0.546875 C 11.085938 0.210938 10.304688 0.722656 9.546875 0.984375 C 9.015625 0.953125 8.457031 0.84375 7.875 0.65625 C 7.300781 0.476562 6.757812 0.226562 6.25 -0.09375 C 5.738281 -0.425781 5.285156 -0.820312 4.890625 -1.28125 C 4.492188 -1.75 4.234375 -2.28125 4.109375 -2.875 C 4.109375 -3.820312 4.140625 -4.582031 4.203125 -5.15625 C 4.265625 -5.738281 4.378906 -6.378906 4.546875 -7.078125 C 4.847656 -8.328125 5.285156 -9.742188 5.859375 -11.328125 C 6.429688 -12.910156 7.101562 -14.46875 7.875 -16 C 8.65625 -17.53125 9.515625 -18.960938 10.453125 -20.296875 C 11.398438 -21.628906 12.382812 -22.675781 13.40625 -23.4375 C 13.664062 -23.4375 13.992188 -23.410156 14.390625 -23.359375 C 14.785156 -23.316406 15.195312 -23.226562 15.625 -23.09375 C 16.050781 -22.957031 16.460938 -22.800781 16.859375 -22.625 C 17.253906 -22.445312 17.601562 -22.207031 17.90625 -21.90625 C 17.539062 -21.570312 16.75 -20.46875 15.53125 -18.59375 C 14.3125 -16.71875 12.957031 -14.015625 11.46875 -10.484375 C 11.300781 -10.117188 11.101562 -9.585938 10.875 -8.890625 C 10.644531 -8.203125 10.421875 -7.476562 10.203125 -6.71875 C 9.992188 -5.96875 9.804688 -5.226562 9.640625 -4.5 C 9.472656 -3.769531 9.390625 -3.191406 9.390625 -2.765625 C 9.390625 -2.503906 9.429688 -2.304688 9.515625 -2.171875 C 9.597656 -2.046875 9.675781 -1.945312 9.75 -1.875 C 10.332031 -1.976562 11.117188 -2.46875 12.109375 -3.34375 C 13.097656 -4.21875 14.222656 -5.578125 15.484375 -7.421875 C 16.273438 -8.609375 17 -9.785156 17.65625 -10.953125 C 18.3125 -12.117188 18.960938 -13.296875 19.609375 -14.484375 C 20.253906 -15.671875 20.921875 -16.890625 21.609375 -18.140625 C 22.304688 -19.398438 23.050781 -20.6875 23.84375 -22 C 24.269531 -22 24.726562 -21.945312 25.21875 -21.84375 C 25.71875 -21.75 26.195312 -21.628906 26.65625 -21.484375 C 27.113281 -21.335938 27.515625 -21.171875 27.859375 -20.984375 C 28.210938 -20.804688 28.472656 -20.617188 28.640625 -20.421875 C 27.609375 -18.242188 26.648438 -16.113281 25.765625 -14.03125 C 24.878906 -11.957031 24.085938 -9.835938 23.390625 -7.671875 Z M 23.390625 -7.671875 "/></g></g></g></svg>